<svg width="142" height="22" viewBox="0 0 142 22" fill="none" xmlns="http://www.w3.org/2000/svg">
<path d="M15.3788 21.2903H21.8757L13.8711 0.928039H7.97723L0 21.2903H6.22279L7.12742 18.7246H14.5016L15.3788 21.2903ZM8.66256 14.3027L10.8556 8.05211L12.9938 14.3027H8.66256Z" fill="url(#paint0_radial)"/>
<path d="M28.4482 13.5658C28.4482 12.5831 29.9285 11.1638 32.2861 11.1638C32.615 11.1638 33.0811 11.2184 33.3004 11.3002V5.45906H32.7795C30.3672 5.45906 28.6401 7.88834 28.1741 9.06203V5.62283H22.8834V21.2903H28.4482V13.5658Z" fill="url(#paint1_radial)"/>
<path d="M47.1941 16.1861H47.0571C46.4266 16.8139 45.193 17.1141 43.9045 17.1141C41.6018 17.1141 39.82 15.5856 39.82 13.4566C39.82 11.3548 41.6018 9.79901 43.9045 9.79901C45.193 9.79901 46.4266 10.0993 47.0571 10.727H47.1941V5.75931C46.4266 5.32258 44.864 5.15881 43.603 5.15881C38.1204 5.15881 34.0084 8.32506 34.0084 13.4566C34.0084 18.5881 38.1204 21.7543 43.603 21.7543C44.864 21.7543 46.4266 21.5906 47.1941 21.1538V16.1861Z" fill="url(#paint2_radial)"/>
<path d="M63.7343 21.2903H68.5591L73.932 5.62283H68.3946L66.0645 14.3027L63.1861 5.62283H58.8L55.9764 14.3027L53.6189 5.62283H47.9443L53.3722 21.2903H58.3888L61.0478 13.0744L63.7343 21.2903Z" fill="url(#paint3_radial)"/>
<path d="M82.6837 4.91315C77.3381 4.91315 73.281 8.59801 73.281 13.4566C73.281 18.3151 77.3381 22 82.6837 22C88.0567 22 92.0864 18.3151 92.0864 13.4566C92.0864 8.59801 88.0567 4.91315 82.6837 4.91315ZM82.6837 9.71712C84.7397 9.71712 86.3022 11.3548 86.3022 13.4566C86.3022 15.5856 84.7397 17.2233 82.6837 17.2233C80.6551 17.2233 79.0926 15.6129 79.0926 13.4566C79.0926 11.3548 80.6551 9.71712 82.6837 9.71712Z" fill="url(#paint4_radial)"/>
<path d="M99.0693 13.5658C99.0693 12.5831 100.55 11.1638 102.907 11.1638C103.236 11.1638 103.702 11.2184 103.921 11.3002V5.45906H103.401C100.988 5.45906 99.2612 7.88834 98.7951 9.06203V5.62283H93.5044V21.2903H99.0693V13.5658Z" fill="url(#paint5_radial)"/>
<path d="M115.563 21.2903H122.143L116.249 11.7097L121.786 5.62283H115.125L110.848 10.3176V0H105.283V21.2903H110.848V16.8958L112.055 15.3945L115.563 21.2903Z" fill="url(#paint6_radial)"/>
<path d="M128.953 5.10422C124.348 5.04963 122.566 7.31514 122.566 9.74442C122.566 11.464 123.114 12.6923 126.458 14.9578C128.021 16.0496 128.405 16.5136 128.405 16.8685C128.405 17.2233 128.076 17.5509 127.171 17.5509C126.267 17.5509 124.731 17.2506 123.114 16.5409V20.9355C124.402 21.4268 126.212 21.8089 127.939 21.8089C132.16 21.8089 134.381 19.6253 134.381 17.0323C134.381 15.3127 133.531 13.9206 129.858 11.3821C128.843 10.6725 128.405 10.2903 128.405 9.96278C128.405 9.58064 128.761 9.33499 129.501 9.33499C130.104 9.33499 131.42 9.49876 132.846 10.072V5.62283C131.777 5.29528 130.516 5.10422 128.953 5.10422Z" fill="url(#paint7_radial)"/>
<path d="M135.859 16.2953V21.2903H142V16.2953H135.859Z" fill="url(#paint8_radial)"/>
<defs>
<radialGradient id="paint0_radial" cx="0" cy="0" r="1" gradientUnits="userSpaceOnUse" gradientTransform="translate(3.17395e-06 22) rotate(-13.9223) scale(91.4361 68.3319)">
<stop stop-color="#1A1A1A"/>
<stop offset="1" stop-color="#121212"/>
</radialGradient>
<radialGradient id="paint1_radial" cx="0" cy="0" r="1" gradientUnits="userSpaceOnUse" gradientTransform="translate(3.17395e-06 22) rotate(-13.9223) scale(91.4361 68.3319)">
<stop stop-color="#1A1A1A"/>
<stop offset="1" stop-color="#121212"/>
</radialGradient>
<radialGradient id="paint2_radial" cx="0" cy="0" r="1" gradientUnits="userSpaceOnUse" gradientTransform="translate(3.17395e-06 22) rotate(-13.9223) scale(91.4361 68.3319)">
<stop stop-color="#1A1A1A"/>
<stop offset="1" stop-color="#121212"/>
</radialGradient>
<radialGradient id="paint3_radial" cx="0" cy="0" r="1" gradientUnits="userSpaceOnUse" gradientTransform="translate(3.17395e-06 22) rotate(-13.9223) scale(91.4361 68.3319)">
<stop stop-color="#1A1A1A"/>
<stop offset="1" stop-color="#121212"/>
</radialGradient>
<radialGradient id="paint4_radial" cx="0" cy="0" r="1" gradientUnits="userSpaceOnUse" gradientTransform="translate(3.17395e-06 22) rotate(-13.9223) scale(91.4361 68.3319)">
<stop stop-color="#1A1A1A"/>
<stop offset="1" stop-color="#121212"/>
</radialGradient>
<radialGradient id="paint5_radial" cx="0" cy="0" r="1" gradientUnits="userSpaceOnUse" gradientTransform="translate(3.17395e-06 22) rotate(-13.9223) scale(91.4361 68.3319)">
<stop stop-color="#1A1A1A"/>
<stop offset="1" stop-color="#121212"/>
</radialGradient>
<radialGradient id="paint6_radial" cx="0" cy="0" r="1" gradientUnits="userSpaceOnUse" gradientTransform="translate(3.17395e-06 22) rotate(-13.9223) scale(91.4361 68.3319)">
<stop stop-color="#1A1A1A"/>
<stop offset="1" stop-color="#121212"/>
</radialGradient>
<radialGradient id="paint7_radial" cx="0" cy="0" r="1" gradientUnits="userSpaceOnUse" gradientTransform="translate(3.17395e-06 22) rotate(-13.9223) scale(91.4361 68.3319)">
<stop stop-color="#1A1A1A"/>
<stop offset="1" stop-color="#121212"/>
</radialGradient>
<radialGradient id="paint8_radial" cx="0" cy="0" r="1" gradientUnits="userSpaceOnUse" gradientTransform="translate(3.17395e-06 22) rotate(-13.9223) scale(91.4361 68.3319)">
<stop stop-color="#1A1A1A"/>
<stop offset="1" stop-color="#121212"/>
</radialGradient>
</defs>
</svg>
