<svg width="74" height="74" viewBox="0 0 74 74" fill="none" xmlns="http://www.w3.org/2000/svg">
<path d="M53 41C64.0457 41 73 32.0457 73 21C73 9.9543 64.0457 1 53 1C41.9543 1 33 9.9543 33 21C33 32.0457 41 41.9543 41 53C41 64.0457 32.0457 73 21 73C9.9543 73 1 64.0457 1 53C1 41.9543 9.9543 33 21 33M13 63C13 58.5817 16.5817 55 21 55M21 55C25.4183 55 29 58.5817 29 63M21 55C24.3137 55 27 52.3137 27 49C27 45.6863 24.3137 43 21 43C17.6863 43 15 45.6863 15 49C15 52.3137 17.6863 55 21 55ZM45 31C45 26.5817 48.5817 23 53 23M53 23C57.4183 23 61 26.5817 61 31M53 23C56.3137 23 59 20.3137 59 17C59 13.6863 56.3137 11 53 11C49.6863 11 47 13.6863 47 17C47 20.3137 49.6863 23 53 23Z" stroke="black"/>
</svg>
