<svg width="56" height="72" viewBox="0 0 56 72" fill="none" xmlns="http://www.w3.org/2000/svg">
<mask id="path-1-inside-1" fill="white">
<path d="M30 0C15.6406 0 4 11.6406 4 26V32L0 48H4V64H20V72H52V39.8627C54.5337 35.8502 56 31.0963 56 26C56 11.6406 44.3594 0 30 0Z"/>
</mask>
<path d="M28 28H27.5V28.5H28V28ZM39.5 28C39.5 34.3513 34.3513 39.5 28 39.5V40.5C34.9036 40.5 40.5 34.9036 40.5 28H39.5ZM28 39.5C21.6487 39.5 16.5 34.3513 16.5 28H15.5C15.5 34.9036 21.0964 40.5 28 40.5V39.5ZM16.5 28C16.5 21.6487 21.6487 16.5 28 16.5V15.5C21.0964 15.5 15.5 21.0964 15.5 28H16.5ZM28 16.5C34.3513 16.5 39.5 21.6487 39.5 28H40.5C40.5 21.0964 34.9036 15.5 28 15.5V16.5ZM27.5 22V28H28.5V22H27.5ZM28 28.5H34V27.5H28V28.5ZM52 72V73H53V72H52ZM20 72H19V73H20V72ZM4 32L4.97014 32.2425L5 32.1231V32H4ZM0 48L-0.970142 47.7575L-1.28078 49H0V48ZM4 64H3V65H4V64ZM4 48H5V47H4V48ZM52 39.8627L51.1545 39.3288L51 39.5734V39.8627H52ZM20 64H21V63H20V64ZM5 26C5 12.1929 16.1929 1 30 1V-1C15.0883 -1 3 11.0883 3 26H5ZM30 1C43.8071 1 55 12.1929 55 26H57C57 11.0883 44.9117 -1 30 -1V1ZM52 71H20V73H52V71ZM5 32V26H3V32H5ZM0.970142 48.2425L4.97014 32.2425L3.02986 31.7575L-0.970142 47.7575L0.970142 48.2425ZM5 64V48H3V64H5ZM4 47H0V49H4V47ZM53 72V39.8627H51V72H53ZM55 26C55 30.9019 53.5902 35.4714 51.1545 39.3288L52.8455 40.3967C55.4772 36.229 57 31.2908 57 26H55ZM20 63H4V65H20V63ZM21 72V64H19V72H21Z" fill="black" mask="url(#path-1-inside-1)"/>
</svg>
