<svg width="74" height="70" viewBox="0 0 74 70" fill="none" xmlns="http://www.w3.org/2000/svg">
<path d="M53 20.7612V20.2612H52.5V20.7612H53ZM16.5 21C16.5 25.1421 13.1421 28.5 9 28.5V29.5C13.6944 29.5 17.5 25.6944 17.5 21H16.5ZM9 28.5C4.85786 28.5 1.5 25.1421 1.5 21H0.5C0.5 25.6944 4.30558 29.5 9 29.5V28.5ZM1.5 21C1.5 16.8579 4.85786 13.5 9 13.5V12.5C4.30558 12.5 0.5 16.3056 0.5 21H1.5ZM9 13.5C13.1421 13.5 16.5 16.8579 16.5 21H17.5C17.5 16.3056 13.6944 12.5 9 12.5V13.5ZM52.5 9C52.5 13.1421 49.1421 16.5 45 16.5V17.5C49.6944 17.5 53.5 13.6944 53.5 9H52.5ZM45 16.5C40.8579 16.5 37.5 13.1421 37.5 9H36.5C36.5 13.6944 40.3056 17.5 45 17.5V16.5ZM37.5 9C37.5 4.85786 40.8579 1.5 45 1.5V0.5C40.3056 0.5 36.5 4.30558 36.5 9H37.5ZM45 1.5C49.1421 1.5 52.5 4.85786 52.5 9H53.5C53.5 4.30558 49.6944 0.5 45 0.5V1.5ZM44.5 57C44.5 61.1421 41.1421 64.5 37 64.5V65.5C41.6944 65.5 45.5 61.6944 45.5 57H44.5ZM37 64.5C32.8579 64.5 29.5 61.1421 29.5 57H28.5C28.5 61.6944 32.3056 65.5 37 65.5V64.5ZM29.5 57C29.5 52.8579 32.8579 49.5 37 49.5V48.5C32.3056 48.5 28.5 52.3056 28.5 57H29.5ZM37 49.5C41.1421 49.5 44.5 52.8579 44.5 57H45.5C45.5 52.3056 41.6944 48.5 37 48.5V49.5ZM63.5 37.9999C63.5 48.2172 55.2173 56.5 45 56.5V57.5C55.7696 57.5 64.5 48.7695 64.5 37.9999H63.5ZM52.5 20.7612V32.7612H53.5V20.7612H52.5ZM65 20.2612H53V21.2612H65V20.2612ZM52.7924 21.2161C59.1768 24.1307 63.5 30.5174 63.5 37.9999H64.5C64.5 30.1192 59.9422 23.3808 53.2076 20.3064L52.7924 21.2161ZM4.64645 45.3536L10.6464 51.3536L11.3536 50.6464L5.35355 44.6464L4.64645 45.3536ZM10.6464 51.3536L16.6464 57.3536L17.3536 56.6464L11.3536 50.6464L10.6464 51.3536ZM16.6464 44.6464L10.6464 50.6464L11.3536 51.3536L17.3536 45.3536L16.6464 44.6464ZM10.6464 50.6464L4.64645 56.6464L5.35355 57.3536L11.3536 51.3536L10.6464 50.6464ZM60.6464 57.3536L66.6464 63.3536L67.3536 62.6464L61.3536 56.6464L60.6464 57.3536ZM66.6464 63.3536L72.6464 69.3536L73.3536 68.6464L67.3536 62.6464L66.6464 63.3536ZM72.6464 56.6464L66.6464 62.6464L67.3536 63.3536L73.3536 57.3536L72.6464 56.6464ZM66.6464 62.6464L60.6464 68.6464L61.3536 69.3536L67.3536 63.3536L66.6464 62.6464ZM28.6464 25.3536L34.6464 31.3536L35.3536 30.6464L29.3536 24.6464L28.6464 25.3536ZM34.6464 31.3536L40.6464 37.3536L41.3536 36.6464L35.3536 30.6464L34.6464 31.3536ZM40.6464 24.6464L34.6464 30.6464L35.3536 31.3536L41.3536 25.3536L40.6464 24.6464ZM34.6464 30.6464L28.6464 36.6464L29.3536 37.3536L35.3536 31.3536L34.6464 30.6464Z" fill="black"/>
</svg>
